<?xml version="1.0" encoding="UTF-8"?>
<!DOCTYPE svg PUBLIC "-//W3C//DTD SVG 1.1//EN" "http://www.w3.org/Graphics/SVG/1.1/DTD/svg11.dtd">
<svg xmlns="http://www.w3.org/2000/svg" version="1.1" width="500px" height="500px" style="shape-rendering:geometricPrecision; text-rendering:geometricPrecision; image-rendering:optimizeQuality; fill-rule:evenodd; clip-rule:evenodd" xmlns:xlink="http://www.w3.org/1999/xlink">
<g><path style="opacity:0.694" fill="#f5ce5f" d="M 282.5,7.5 C 257.8,5.94518 233.134,6.27852 208.5,8.5C 213.294,7.27002 218.294,6.43669 223.5,6C 232.343,5.65826 241.177,5.15826 250,4.5C 260.872,4.71774 271.705,5.71774 282.5,7.5 Z"/></g>
<g><path style="opacity:0.999" fill="#f9c11f" d="M 282.5,7.5 C 299.375,9.46175 315.708,13.4618 331.5,19.5C 340.275,24.2833 349.275,28.7833 358.5,33C 349.393,33.396 341.393,30.7293 334.5,25C 331.854,24.5026 329.187,24.3359 326.5,24.5C 306.724,18.7635 286.724,14.7635 266.5,12.5C 243.587,11.0335 220.587,11.8668 197.5,15C 193.875,16.983 190.208,18.8163 186.5,20.5C 184.162,22.0395 181.495,22.7062 178.5,22.5C 175.956,22.1043 173.789,22.771 172,24.5C 163.273,22.3495 163.44,20.6828 172.5,19.5C 174.332,18.9432 175.665,17.9432 176.5,16.5C 186.714,12.4368 197.38,9.77016 208.5,8.5C 233.134,6.27852 257.8,5.94518 282.5,7.5 Z"/></g>
<g><path style="opacity:0.169" fill="#fad06a" d="M 266.5,12.5 C 239.164,11.4397 212.498,14.1064 186.5,20.5C 190.208,18.8163 193.875,16.983 197.5,15C 220.587,11.8668 243.587,11.0335 266.5,12.5 Z"/></g>
<g><path style="opacity:1" fill="#328d45" d="M 244.5,61.5 C 243.833,61.5 243.167,61.5 242.5,61.5C 241.972,60.2794 241.305,59.1127 240.5,58C 245.389,49.2611 246.723,40.0944 244.5,30.5C 243.833,27.8333 243.167,25.1667 242.5,22.5C 249.4,18.0059 255.9,18.6726 262,24.5C 264.815,29.6831 265.148,35.0164 263,40.5C 259.019,47.6279 254.185,54.1279 248.5,60C 247.255,60.7914 245.922,61.2914 244.5,61.5 Z"/></g>
<g><path style="opacity:1" fill="#d9660a" d="M 240.5,52.5 C 240.5,53.5 240.5,54.5 240.5,55.5C 238.824,56.1834 238.157,57.5168 238.5,59.5C 231.783,58.1747 227.116,54.508 224.5,48.5C 223.833,46.8333 223.167,45.1667 222.5,43.5C 223.693,43.0296 224.36,42.0296 224.5,40.5C 222.998,36.3462 223.331,32.3462 225.5,28.5C 227.526,27.6303 228.859,26.1303 229.5,24C 235.201,22.4351 239.367,24.2685 242,29.5C 242.716,37.463 242.216,45.1296 240.5,52.5 Z"/></g>
<g><path style="opacity:1" fill="#d0772c" d="M 242.5,22.5 C 243.167,25.1667 243.833,27.8333 244.5,30.5C 244.412,35.5364 243.912,40.5364 243,45.5C 242.844,48.1909 242.011,50.5242 240.5,52.5C 242.216,45.1296 242.716,37.463 242,29.5C 239.367,24.2685 235.201,22.4351 229.5,24C 228.859,26.1303 227.526,27.6303 225.5,28.5C 223.331,32.3462 222.998,36.3462 224.5,40.5C 224.36,42.0296 223.693,43.0296 222.5,43.5C 218.604,26.2489 225.271,19.2489 242.5,22.5 Z"/></g>
<g><path style="opacity:0.476" fill="#a68232" d="M 244.5,30.5 C 246.723,40.0944 245.389,49.2611 240.5,58C 241.305,59.1127 241.972,60.2794 242.5,61.5C 239.401,60.4673 238.734,58.4673 240.5,55.5C 240.5,54.5 240.5,53.5 240.5,52.5C 242.011,50.5242 242.844,48.1909 243,45.5C 243.912,40.5364 244.412,35.5364 244.5,30.5 Z"/></g>
<g><path style="opacity:1" fill="#e9c33a" d="M 176.5,16.5 C 175.665,17.9432 174.332,18.9432 172.5,19.5C 163.44,20.6828 163.273,22.3495 172,24.5C 173.789,22.771 175.956,22.1043 178.5,22.5C 147.734,32.8676 119.734,48.5342 94.5,69.5C 92.3807,70.7385 90.3807,72.2385 88.5,74C 86.8333,74.3333 85.1667,74.6667 83.5,75C 82.32,78.5194 80.32,81.5194 77.5,84C 75.3646,84.6347 73.3646,84.3014 71.5,83C 74.5187,79.9723 77.1854,76.8057 79.5,73.5C 101.057,52.4599 125.723,35.9599 153.5,24C 161.007,20.9082 168.673,18.4082 176.5,16.5 Z"/></g>
<g><path style="opacity:0.416" fill="#e5b28c" d="M 227.5,57.5 C 231.358,58.7008 233.358,61.3674 233.5,65.5C 232.833,65.5 232.167,65.5 231.5,65.5C 232.109,62.1216 230.776,60.1216 227.5,59.5C 226.494,58.6043 226.494,57.9377 227.5,57.5 Z"/></g>
<g><path style="opacity:1" fill="#e3c643" d="M 331.5,19.5 C 374.94,34.8729 410.94,60.5396 439.5,96.5C 439.892,98.1789 440.392,99.8455 441,101.5C 445.93,104.69 448.096,109.024 447.5,114.5C 443.494,112.363 440.994,109.03 440,104.5C 437.743,101.613 434.91,99.6126 431.5,98.5C 402.969,64.7278 367.969,40.0612 326.5,24.5C 329.187,24.3359 331.854,24.5026 334.5,25C 341.393,30.7293 349.393,33.396 358.5,33C 349.275,28.7833 340.275,24.2833 331.5,19.5 Z"/></g>
<g><path style="opacity:1" fill="#ce0404" d="M 210.5,83.5 C 207.524,84.7893 204.524,86.1226 201.5,87.5C 197.829,86.9018 194.162,85.9018 190.5,84.5C 190.709,83.914 191.043,83.414 191.5,83C 190.151,82.2276 189.318,81.0609 189,79.5C 188.501,74.1771 188.334,68.8437 188.5,63.5C 188.328,62.5084 188.662,61.8417 189.5,61.5C 191.492,61.6715 193.158,61.0049 194.5,59.5C 194.936,63.7556 194.936,68.089 194.5,72.5C 197.167,72.5 199.833,72.5 202.5,72.5C 203.406,68.8512 204.74,65.3512 206.5,62C 202.291,61.9203 198.791,60.4203 196,57.5C 196.71,55.78 197.877,54.1133 199.5,52.5C 202.22,54.1107 205.22,54.944 208.5,55C 210.892,56.4085 213.226,57.9085 215.5,59.5C 216.493,64.1196 216.827,68.7863 216.5,73.5C 215.07,73.4208 213.736,73.7542 212.5,74.5C 212.167,73.8333 211.833,73.1667 211.5,72.5C 210.692,72.8076 210.025,73.3076 209.5,74C 211.016,75.897 211.683,78.0637 211.5,80.5C 210.5,80.5 209.5,80.5 208.5,80.5C 208.285,82.1788 208.952,83.1788 210.5,83.5 Z M 199.5,62.5 C 204.389,63.4823 204.723,65.4823 200.5,68.5C 199.264,69.2458 197.93,69.5792 196.5,69.5C 196.166,66.509 197.166,64.1757 199.5,62.5 Z"/></g>
<g><path style="opacity:1" fill="#cb241a" d="M 227.5,59.5 C 230.776,60.1216 232.109,62.1216 231.5,65.5C 230.637,71.2862 229.303,76.9528 227.5,82.5C 226.761,82.369 226.094,82.5357 225.5,83C 223.249,86.0663 220.915,88.8997 218.5,91.5C 220.031,92.9245 219.698,93.5912 217.5,93.5C 214.494,89.9835 212.16,86.6502 210.5,83.5C 208.952,83.1788 208.285,82.1788 208.5,80.5C 209.5,80.5 210.5,80.5 211.5,80.5C 211.683,78.0637 211.016,75.897 209.5,74C 210.025,73.3076 210.692,72.8076 211.5,72.5C 211.833,73.1667 212.167,73.8333 212.5,74.5C 213.736,73.7542 215.07,73.4208 216.5,73.5C 216.827,68.7863 216.493,64.1196 215.5,59.5C 213.226,57.9085 210.892,56.4085 208.5,55C 205.22,54.944 202.22,54.1107 199.5,52.5C 197.877,54.1133 196.71,55.78 196,57.5C 198.791,60.4203 202.291,61.9203 206.5,62C 204.74,65.3512 203.406,68.8512 202.5,72.5C 199.833,72.5 197.167,72.5 194.5,72.5C 194.936,68.089 194.936,63.7556 194.5,59.5C 193.158,61.0049 191.492,61.6715 189.5,61.5C 189.511,59.9826 190.177,58.8159 191.5,58C 186.183,56.7469 181.349,57.5802 177,60.5C 170.241,58.6254 169.741,55.4587 175.5,51C 180.782,51.505 186.116,51.505 191.5,51C 187.853,48.3224 184.187,48.1558 180.5,50.5C 179.065,48.5989 177.398,48.2655 175.5,49.5C 174.587,45.2307 176.087,41.8974 180,39.5C 185.921,42.6436 192.087,45.3102 198.5,47.5C 199.685,48.853 201.019,50.0197 202.5,51C 211.152,51.2213 216.652,55.3879 219,63.5C 219.374,62.5838 219.874,61.7504 220.5,61C 222.92,60.7096 225.254,60.2096 227.5,59.5 Z M 199.5,62.5 C 197.166,64.1757 196.166,66.509 196.5,69.5C 197.93,69.5792 199.264,69.2458 200.5,68.5C 204.723,65.4823 204.389,63.4823 199.5,62.5 Z"/></g>
<g><path style="opacity:1" fill="#ce0101" d="M 107.5,74.5 C 123.751,77.2151 140.085,79.8817 156.5,82.5C 156.62,83.5862 157.287,84.2528 158.5,84.5C 160.762,85.4669 163.095,86.1336 165.5,86.5C 165.5,88.1667 165.5,89.8333 165.5,91.5C 168.807,90.9492 172.14,90.6159 175.5,90.5C 175.297,92.3904 175.963,93.8904 177.5,95C 182.505,94.998 186.838,96.6646 190.5,100C 192.577,100.192 194.577,100.692 196.5,101.5C 196.291,102.086 195.957,102.586 195.5,103C 196.833,103.333 198.167,103.667 199.5,104C 197.359,105.308 195.359,106.808 193.5,108.5C 195.686,109.221 197.853,109.887 200,110.5C 200.315,111.908 199.982,113.241 199,114.5C 195.636,115.739 192.136,116.406 188.5,116.5C 179.744,115.399 171.077,113.899 162.5,112C 140.503,111.5 118.503,111.333 96.5,111.5C 96.5,98.8333 96.5,86.1667 96.5,73.5C 100.371,73.185 104.038,73.5184 107.5,74.5 Z"/></g>
<g><path style="opacity:0.966" fill="#dd8843" d="M 382.5,73.5 C 381.192,74.2323 379.858,75.0656 378.5,76C 373.858,75.962 369.525,76.962 365.5,79C 359.477,79.3587 353.477,79.8587 347.5,80.5C 350.906,78.891 354.573,77.7244 358.5,77C 366.499,75.7665 374.499,74.5998 382.5,73.5 Z"/></g>
<g><path style="opacity:0.475" fill="#d99d56" d="M 389.5,112.5 C 392.962,111.518 396.629,111.185 400.5,111.5C 400.5,99.1667 400.5,86.8333 400.5,74.5C 396.004,73.5888 391.671,73.2555 387.5,73.5C 392.5,72.1667 397.5,72.1667 402.5,73.5C 402.5,86.5 402.5,99.5 402.5,112.5C 398.167,112.5 393.833,112.5 389.5,112.5 Z"/></g>
<g><path style="opacity:1" fill="#ce4136" d="M 107.5,74.5 C 124.371,74.6131 140.704,77.2797 156.5,82.5C 140.085,79.8817 123.751,77.2151 107.5,74.5 Z"/></g>
<g><path style="opacity:1" fill="#c3352c" d="M 188.5,63.5 C 188.334,68.8437 188.501,74.1771 189,79.5C 189.318,81.0609 190.151,82.2276 191.5,83C 191.043,83.414 190.709,83.914 190.5,84.5C 194.162,85.9018 197.829,86.9018 201.5,87.5C 191.505,90.3258 186.172,86.4924 185.5,76C 185.507,71.4776 186.507,67.3109 188.5,63.5 Z"/></g>
<g><path style="opacity:1" fill="#dc670b" d="M 231.5,76.5 C 232.441,74.9505 233.107,73.2838 233.5,71.5C 234.479,68.3752 234.813,65.0419 234.5,61.5C 237.206,61.5751 239.873,61.9084 242.5,62.5C 245.094,70.475 245.094,78.475 242.5,86.5C 239.607,87.523 236.774,87.523 234,86.5C 233.798,88.2556 233.298,89.9223 232.5,91.5C 231.914,91.2907 231.414,90.9574 231,90.5C 230.691,91.7659 230.191,92.9326 229.5,94C 230.451,94.7175 230.617,95.5509 230,96.5C 228.506,97.7472 227.006,97.7472 225.5,96.5C 224.687,95.1861 223.687,94.0195 222.5,93C 225.196,88.8054 228.196,84.8054 231.5,81C 232.608,79.3227 232.608,77.8227 231.5,76.5 Z"/></g>
<g><path style="opacity:1" fill="#d47125" d="M 224.5,48.5 C 227.116,54.508 231.783,58.1747 238.5,59.5C 238.157,57.5168 238.824,56.1834 240.5,55.5C 238.734,58.4673 239.401,60.4673 242.5,61.5C 243.167,61.5 243.833,61.5 244.5,61.5C 245.715,65.4678 246.715,69.4678 247.5,73.5C 247.433,74.9587 247.766,76.2921 248.5,77.5C 247.624,77.3691 246.957,77.7025 246.5,78.5C 245.619,82.0364 244.286,85.3697 242.5,88.5C 239.735,91.0417 237.735,94.0417 236.5,97.5C 236.167,97.5 235.833,97.5 235.5,97.5C 234.673,96.5613 234.006,96.8946 233.5,98.5C 232.508,98.3284 231.842,98.6618 231.5,99.5C 225.169,100.981 220.502,98.9812 217.5,93.5C 219.698,93.5912 220.031,92.9245 218.5,91.5C 222.522,89.4784 225.522,86.4784 227.5,82.5C 229.822,81.1979 231.155,79.1979 231.5,76.5C 232.608,77.8227 232.608,79.3227 231.5,81C 228.196,84.8054 225.196,88.8054 222.5,93C 223.687,94.0195 224.687,95.1861 225.5,96.5C 227.006,97.7472 228.506,97.7472 230,96.5C 230.617,95.5509 230.451,94.7175 229.5,94C 230.191,92.9326 230.691,91.7659 231,90.5C 231.414,90.9574 231.914,91.2907 232.5,91.5C 233.298,89.9223 233.798,88.2556 234,86.5C 236.774,87.523 239.607,87.523 242.5,86.5C 245.094,78.475 245.094,70.475 242.5,62.5C 239.873,61.9084 237.206,61.5751 234.5,61.5C 234.813,65.0419 234.479,68.3752 233.5,71.5C 233.5,69.5 233.5,67.5 233.5,65.5C 233.358,61.3674 231.358,58.7008 227.5,57.5C 226.213,54.5939 225.213,51.5939 224.5,48.5 Z"/></g>
<g><path style="opacity:1" fill="#447a96" d="M 264.5,74.5 C 269.575,77.2703 272.742,81.6037 274,87.5C 274.179,90.5535 274.679,93.5535 275.5,96.5C 278.651,97.9717 281.317,99.9717 283.5,102.5C 283.167,102.833 282.833,103.167 282.5,103.5C 279.198,102.742 275.865,102.075 272.5,101.5C 265.806,107.353 258.139,109.353 249.5,107.5C 251.854,104.312 254.688,101.645 258,99.5C 263.309,92.0577 265.476,83.7244 264.5,74.5 Z"/></g>
<g><path style="opacity:1" fill="#338d4e" d="M 256.5,67.5 C 258.017,67.5106 259.184,68.1772 260,69.5C 265.809,85.3954 261.309,97.5621 246.5,106C 241.232,107.068 236.232,106.401 231.5,104C 231.011,102.236 231.011,100.736 231.5,99.5C 231.842,98.6618 232.508,98.3284 233.5,98.5C 234.327,99.4387 234.994,99.1054 235.5,97.5C 235.833,97.5 236.167,97.5 236.5,97.5C 243.32,92.1987 247.32,85.5321 248.5,77.5C 247.766,76.2921 247.433,74.9587 247.5,73.5C 248.895,75.0544 249.561,74.721 249.5,72.5C 245.779,61.5399 248.112,59.8732 256.5,67.5 Z"/></g>
<g><path style="opacity:1" fill="#1c8b3e" d="M 256.5,67.5 C 259.133,72.0723 260.133,77.0723 259.5,82.5C 256.068,82.2479 255.068,83.5812 256.5,86.5C 257.086,86.2907 257.586,85.9574 258,85.5C 258.736,90.4622 256.903,94.1289 252.5,96.5C 251.571,97.6888 251.238,99.0222 251.5,100.5C 250.07,100.421 248.736,100.754 247.5,101.5C 244.758,99.0669 243.925,96.0669 245,92.5C 246.113,91.2889 247.28,91.2889 248.5,92.5C 248.833,92 249.167,91.5 249.5,91C 248.713,88.9011 248.38,86.7345 248.5,84.5C 249.552,84.6495 250.552,84.4828 251.5,84C 251.052,78.181 250.885,72.3476 251,66.5C 252.699,67.4061 254.533,67.7394 256.5,67.5 Z"/></g>
<g><path style="opacity:1" fill="#cc241a" d="M 156.5,82.5 C 183.227,89.6927 206.894,101.693 227.5,118.5C 224.577,117.705 221.91,116.372 219.5,114.5C 216.249,116.502 212.249,117.668 207.5,118C 209.439,118.908 210.439,120.408 210.5,122.5C 215.219,123.244 219.886,124.244 224.5,125.5C 225.711,126.274 225.711,127.107 224.5,128C 222.667,128.167 220.833,128.333 219,128.5C 210.015,126.453 200.849,124.953 191.5,124C 190.584,123.722 189.918,123.222 189.5,122.5C 196.85,123.17 204.183,123.67 211.5,124C 204.304,122.426 197.304,120.593 190.5,118.5C 189.833,117.833 189.167,117.167 188.5,116.5C 192.136,116.406 195.636,115.739 199,114.5C 199.982,113.241 200.315,111.908 200,110.5C 197.853,109.887 195.686,109.221 193.5,108.5C 195.359,106.808 197.359,105.308 199.5,104C 198.167,103.667 196.833,103.333 195.5,103C 195.957,102.586 196.291,102.086 196.5,101.5C 194.577,100.692 192.577,100.192 190.5,100C 186.838,96.6646 182.505,94.998 177.5,95C 175.963,93.8904 175.297,92.3904 175.5,90.5C 172.14,90.6159 168.807,90.9492 165.5,91.5C 165.5,89.8333 165.5,88.1667 165.5,86.5C 163.095,86.1336 160.762,85.4669 158.5,84.5C 157.287,84.2528 156.62,83.5862 156.5,82.5 Z"/></g>
<g><path style="opacity:1" fill="#d1c24f" d="M 94.5,69.5 C 92.3401,73.8248 89.0068,76.9915 84.5,79C 79.0136,85.4534 73.1802,91.6201 67,97.5C 67.1316,101.033 65.4649,103.033 62,103.5C 58.0574,109.741 53.8908,115.741 49.5,121.5C 44.9026,124.224 41.9026,128.224 40.5,133.5C 39.6433,132.264 38.9766,130.931 38.5,129.5C 40.0863,127.827 40.7529,125.827 40.5,123.5C 43.1355,117.565 46.3022,111.898 50,106.5C 58.986,94.6841 68.8193,83.6841 79.5,73.5C 77.1854,76.8057 74.5187,79.9723 71.5,83C 73.3646,84.3014 75.3646,84.6347 77.5,84C 80.32,81.5194 82.32,78.5194 83.5,75C 85.1667,74.6667 86.8333,74.3333 88.5,74C 90.3807,72.2385 92.3807,70.7385 94.5,69.5 Z"/></g>
<g><path style="opacity:0.384" fill="#d9864a" d="M 377.5,112.5 C 352.484,111.762 327.817,114.095 303.5,119.5C 305.475,117.91 307.808,116.743 310.5,116C 332.838,111.153 355.504,109.486 378.5,111C 377.944,111.383 377.611,111.883 377.5,112.5 Z"/></g>
<g><path style="opacity:0.808" fill="#d25349" d="M 96.5,111.5 C 118.503,111.333 140.503,111.5 162.5,112C 171.077,113.899 179.744,115.399 188.5,116.5C 189.167,117.167 189.833,117.833 190.5,118.5C 175.579,116.083 160.579,114.25 145.5,113C 128.995,112.831 112.662,112.331 96.5,111.5 Z"/></g>
<g><path style="opacity:1" fill="#cf0000" d="M 227.5,118.5 C 227.995,120.482 228.495,122.482 229,124.5C 229.333,124.167 229.667,123.833 230,123.5C 231.405,125.191 232.572,127.024 233.5,129C 236.319,129.068 238.486,130.234 240,132.5C 240.5,187.166 240.667,241.832 240.5,296.5C 234.804,296.553 229.138,296.22 223.5,295.5C 220.043,294.077 216.71,292.077 213.5,289.5C 203.351,289.903 193.185,290.236 183,290.5C 175.391,290.094 168.057,289.427 161,288.5C 160.612,289.428 159.945,290.095 159,290.5C 156.635,288.956 154.301,288.289 152,288.5C 150.667,289.167 149.333,289.833 148,290.5C 146.333,289.167 144.667,289.167 143,290.5C 139.206,289.77 135.373,289.27 131.5,289C 128.403,285.67 127.07,286.504 127.5,291.5C 130.722,291.108 133.722,291.608 136.5,293C 133.475,293.133 130.808,294.133 128.5,296C 128.833,296.333 129.167,296.667 129.5,297C 126.891,299.834 123.558,301.167 119.5,301C 116.734,302.371 114.401,304.204 112.5,306.5C 108.802,306.552 105.135,306.886 101.5,307.5C 101.5,308.5 101.5,309.5 101.5,310.5C 100.167,310.5 98.8333,310.5 97.5,310.5C 97.5,249.833 97.5,189.167 97.5,128.5C 99.698,128.88 101.365,128.213 102.5,126.5C 102.5,125.833 102.833,125.5 103.5,125.5C 104.793,126.158 106.293,126.492 108,126.5C 134.698,122.829 161.531,121.496 188.5,122.5C 188.833,122.5 189.167,122.5 189.5,122.5C 189.918,123.222 190.584,123.722 191.5,124C 200.849,124.953 210.015,126.453 219,128.5C 220.833,128.333 222.667,128.167 224.5,128C 225.711,127.107 225.711,126.274 224.5,125.5C 219.886,124.244 215.219,123.244 210.5,122.5C 210.439,120.408 209.439,118.908 207.5,118C 212.249,117.668 216.249,116.502 219.5,114.5C 221.91,116.372 224.577,117.705 227.5,118.5 Z M 155.5,164.5 C 162.167,164.833 168.833,165.167 175.5,165.5C 183.592,165.239 191.592,165.906 199.5,167.5C 199.5,194.833 199.5,222.167 199.5,249.5C 188.38,249.575 177.38,249.575 166.5,249.5C 157.161,250.773 147.828,252.107 138.5,253.5C 138.169,223.995 138.502,194.662 139.5,165.5C 139.735,166.097 140.235,166.43 141,166.5C 145.98,165.907 150.814,165.24 155.5,164.5 Z"/></g>
<g><path style="opacity:0.208" fill="#d5874b" d="M 397.5,126.5 C 364.29,122.391 330.957,121.391 297.5,123.5C 298.751,121.78 300.251,121.447 302,122.5C 325.759,120.108 349.592,119.941 373.5,122C 381.774,122.765 389.774,124.265 397.5,126.5 Z"/></g>
<g><path style="opacity:0.835" fill="#c23c37" d="M 188.5,122.5 C 161.531,121.496 134.698,122.829 108,126.5C 106.293,126.492 104.793,126.158 103.5,125.5C 131.859,121.479 160.192,120.479 188.5,122.5 Z"/></g>
<g><path style="opacity:1" fill="#da6608" d="M 382.5,73.5 C 384.167,73.5 385.833,73.5 387.5,73.5C 391.671,73.2555 396.004,73.5888 400.5,74.5C 400.5,86.8333 400.5,99.1667 400.5,111.5C 396.629,111.185 392.962,111.518 389.5,112.5C 385.5,112.5 381.5,112.5 377.5,112.5C 377.611,111.883 377.944,111.383 378.5,111C 355.504,109.486 332.838,111.153 310.5,116C 307.808,116.743 305.475,117.91 303.5,119.5C 297.149,120.838 290.815,122.338 284.5,124C 288.791,123.804 293.124,123.637 297.5,123.5C 330.957,121.391 364.29,122.391 397.5,126.5C 398.209,127.404 399.209,127.737 400.5,127.5C 400.5,170.167 400.5,212.833 400.5,255.5C 397.413,253.983 394.079,253.316 390.5,253.5C 381.718,250.307 372.718,247.64 363.5,245.5C 362.097,244.069 360.431,242.902 358.5,242C 345.167,239.193 331.667,237.693 318,237.5C 312.303,237.75 306.803,238.417 301.5,239.5C 300.883,239.611 300.383,239.944 300,240.5C 299.502,243.482 299.335,246.482 299.5,249.5C 318.852,249.59 338.186,251.424 357.5,255C 359.156,256.829 361.156,258.163 363.5,259C 370.262,259.285 376.929,260.118 383.5,261.5C 383.5,262.833 383.5,264.167 383.5,265.5C 381.325,265.682 379.325,266.349 377.5,267.5C 375.796,265.151 373.463,264.151 370.5,264.5C 370.5,265.5 370.5,266.5 370.5,267.5C 369.5,267.5 368.5,267.5 367.5,267.5C 367.762,266.022 367.429,264.689 366.5,263.5C 363.363,264.126 360.363,265.126 357.5,266.5C 357.709,267.086 358.043,267.586 358.5,268C 365.877,268.884 373.211,269.217 380.5,269C 382.453,267.367 384.62,266.201 387,265.5C 387.833,265.833 388.667,266.167 389.5,266.5C 388.352,268.149 387.019,269.649 385.5,271C 388.399,271.22 391.233,270.72 394,269.5C 396.187,269.788 398.354,270.122 400.5,270.5C 400.667,283.504 400.5,296.504 400,309.5C 399.167,308 398,306.833 396.5,306C 393.671,305.952 391.337,304.952 389.5,303C 383.251,302.118 377.251,300.451 371.5,298C 372.328,297.085 373.328,296.419 374.5,296C 370.283,294.497 366.116,292.997 362,291.5C 358.216,293.912 354.716,293.412 351.5,290C 345.475,289.698 339.642,289.865 334,290.5C 328.824,290.047 324.657,288.714 321.5,286.5C 320.059,287.304 318.559,287.971 317,288.5C 315.445,287.152 313.611,286.486 311.5,286.5C 307.947,287.601 304.447,288.934 301,290.5C 300.626,289.584 300.126,288.75 299.5,288C 295.775,287.24 292.108,287.407 288.5,288.5C 286.636,286.055 284.636,285.888 282.5,288C 284.421,288.36 286.088,289.194 287.5,290.5C 284.358,291.167 281.358,291.834 278.5,292.5C 276.473,292.338 274.473,292.505 272.5,293C 271.748,293.671 271.414,294.504 271.5,295.5C 267.413,297.064 263.079,298.064 258.5,298.5C 256.508,267.851 255.841,236.851 256.5,205.5C 260.902,205.074 264.902,203.74 268.5,201.5C 274.324,201.723 279.99,200.89 285.5,199C 299.494,198.061 313.494,197.727 327.5,198C 327.5,199 327.5,200 327.5,201C 330.998,201.208 334.331,202.041 337.5,203.5C 339.994,203.378 340.661,202.378 339.5,200.5C 342.876,199.289 346.209,199.456 349.5,201C 346.475,201.154 344.809,202.654 344.5,205.5C 348.846,205.666 353.179,205.499 357.5,205C 355.655,203.872 353.655,203.372 351.5,203.5C 351.5,202.5 351.5,201.5 351.5,200.5C 354.711,200.988 357.544,200.321 360,198.5C 360.833,186.819 360.666,175.152 359.5,163.5C 350.039,162.182 340.705,162.182 331.5,163.5C 319.404,163.147 307.404,163.98 295.5,166C 293.327,168.892 292.994,172.059 294.5,175.5C 295.281,174.271 295.781,172.938 296,171.5C 296.087,176.488 295.92,181.488 295.5,186.5C 292.179,186.464 289.012,187.131 286,188.5C 284.427,188.155 283.26,187.489 282.5,186.5C 274.45,190.912 265.783,192.912 256.5,192.5C 256.333,172.164 256.5,151.831 257,131.5C 259.43,129.578 261.263,127.245 262.5,124.5C 287.014,102.741 315.347,88.0744 347.5,80.5C 353.477,79.8587 359.477,79.3587 365.5,79C 369.525,76.962 373.858,75.962 378.5,76C 379.858,75.0656 381.192,74.2323 382.5,73.5 Z"/></g>
<g><path style="opacity:1" fill="#c9c352" d="M 439.5,96.5 C 444.945,103.213 450.279,110.046 455.5,117C 455.167,117.333 454.833,117.667 454.5,118C 457.133,120.765 459.133,123.931 460.5,127.5C 461.826,130.682 462.326,134.015 462,137.5C 461.107,138.711 460.274,138.711 459.5,137.5C 458.691,135.929 458.357,134.262 458.5,132.5C 457.167,132.5 455.833,132.5 454.5,132.5C 447.824,120.475 440.157,109.142 431.5,98.5C 434.91,99.6126 437.743,101.613 440,104.5C 440.994,109.03 443.494,112.363 447.5,114.5C 448.096,109.024 445.93,104.69 441,101.5C 440.392,99.8455 439.892,98.1789 439.5,96.5 Z"/></g>
<g><path style="opacity:0.776" fill="#b41811" d="M 102.5,126.5 C 101.365,128.213 99.698,128.88 97.5,128.5C 97.5,189.167 97.5,249.833 97.5,310.5C 98.8333,310.5 100.167,310.5 101.5,310.5C 101.5,309.5 101.5,308.5 101.5,307.5C 105.135,306.886 108.802,306.552 112.5,306.5C 107.59,309.095 102.423,311.428 97,313.5C 96.5,251.168 96.3333,188.834 96.5,126.5C 98.5,126.5 100.5,126.5 102.5,126.5 Z"/></g>
<g><path style="opacity:0.667" fill="#b81b17" d="M 227.5,118.5 C 232.479,121.915 236.979,125.915 241,130.5C 241.5,186.832 241.667,243.166 241.5,299.5C 235.249,298.797 229.249,297.464 223.5,295.5C 229.138,296.22 234.804,296.553 240.5,296.5C 240.667,241.832 240.5,187.166 240,132.5C 238.486,130.234 236.319,129.068 233.5,129C 232.572,127.024 231.405,125.191 230,123.5C 229.667,123.833 229.333,124.167 229,124.5C 228.495,122.482 227.995,120.482 227.5,118.5 Z"/></g>
<g><path style="opacity:1" fill="#b4c05c" d="M 460.5,127.5 C 473.312,148.817 481.979,171.817 486.5,196.5C 486.825,201.599 486.325,206.599 485,211.5C 484.667,209.5 484.333,207.5 484,205.5C 483.503,207.81 483.337,210.143 483.5,212.5C 478.327,184.163 468.66,157.496 454.5,132.5C 455.833,132.5 457.167,132.5 458.5,132.5C 458.357,134.262 458.691,135.929 459.5,137.5C 460.274,138.711 461.107,138.711 462,137.5C 462.326,134.015 461.826,130.682 460.5,127.5 Z"/></g>
<g><path style="opacity:1" fill="#b9c355" d="M 49.5,121.5 C 43.7928,131.232 38.4595,141.232 33.5,151.5C 32.2101,152.058 31.3768,153.058 31,154.5C 28.0395,162.127 25.0395,169.794 22,177.5C 20.0916,176.182 19.2582,174.348 19.5,172C 21.4709,166.219 23.1376,160.385 24.5,154.5C 28.5173,143.465 33.8506,133.131 40.5,123.5C 40.7529,125.827 40.0863,127.827 38.5,129.5C 38.9766,130.931 39.6433,132.264 40.5,133.5C 41.9026,128.224 44.9026,124.224 49.5,121.5 Z"/></g>
<g><path style="opacity:0.027" fill="#fca6a1" d="M 155.5,164.5 C 150.814,165.24 145.98,165.907 141,166.5C 140.235,166.43 139.735,166.097 139.5,165.5C 144.64,164.512 149.974,164.179 155.5,164.5 Z"/></g>
<g><path style="opacity:0.475" fill="#dc9a50" d="M 397.5,126.5 C 399.144,126.286 400.644,126.62 402,127.5C 402.667,170.833 402.667,214.167 402,257.5C 401.586,257.957 401.086,258.291 400.5,258.5C 397.106,256.803 393.773,255.136 390.5,253.5C 394.079,253.316 397.413,253.983 400.5,255.5C 400.5,212.833 400.5,170.167 400.5,127.5C 399.209,127.737 398.209,127.404 397.5,126.5 Z"/></g>
<g><path style="opacity:0.984" fill="#bbc879" d="M 33.5,151.5 C 30.8828,161.085 27.3828,170.418 23,179.5C 22.6667,182.5 22.3333,185.5 22,188.5C 21.2917,189.381 20.4584,190.047 19.5,190.5C 20.1901,186.51 20.3568,182.51 20,178.5C 18.9887,179.337 17.8221,179.67 16.5,179.5C 16.8076,181.924 16.4742,184.257 15.5,186.5C 14.0652,187.947 13.0652,189.614 12.5,191.5C 14.9225,178.568 18.9225,166.235 24.5,154.5C 23.1376,160.385 21.4709,166.219 19.5,172C 19.2582,174.348 20.0916,176.182 22,177.5C 25.0395,169.794 28.0395,162.127 31,154.5C 31.3768,153.058 32.2101,152.058 33.5,151.5 Z"/></g>
<g><path style="opacity:1" fill="#d57d3b" d="M 262.5,124.5 C 261.263,127.245 259.43,129.578 257,131.5C 256.5,151.831 256.333,172.164 256.5,192.5C 265.783,192.912 274.45,190.912 282.5,186.5C 283.26,187.489 284.427,188.155 286,188.5C 289.012,187.131 292.179,186.464 295.5,186.5C 295.92,181.488 296.087,176.488 296,171.5C 295.781,172.938 295.281,174.271 294.5,175.5C 292.994,172.059 293.327,168.892 295.5,166C 307.404,163.98 319.404,163.147 331.5,163.5C 321.04,165.155 310.374,166.155 299.5,166.5C 299.5,173.833 299.5,181.167 299.5,188.5C 284.654,189.752 269.987,192.086 255.5,195.5C 255.827,173.925 255.494,152.425 254.5,131C 257.374,128.946 260.041,126.779 262.5,124.5 Z"/></g>
<g><path style="opacity:0.486" fill="#b03b36" d="M 175.5,165.5 C 168.833,165.167 162.167,164.833 155.5,164.5C 149.974,164.179 144.64,164.512 139.5,165.5C 138.502,194.662 138.169,223.995 138.5,253.5C 138.167,253.5 137.833,253.5 137.5,253.5C 137.333,223.831 137.5,194.165 138,164.5C 144.256,163.843 150.589,163.51 157,163.5C 163.538,163.504 169.705,164.17 175.5,165.5 Z"/></g>
<g><path style="opacity:1" fill="#d8772f" d="M 331.5,163.5 C 340.705,162.182 350.039,162.182 359.5,163.5C 360.666,175.152 360.833,186.819 360,198.5C 357.544,200.321 354.711,200.988 351.5,200.5C 351.5,201.5 351.5,202.5 351.5,203.5C 353.655,203.372 355.655,203.872 357.5,205C 353.179,205.499 348.846,205.666 344.5,205.5C 344.809,202.654 346.475,201.154 349.5,201C 346.209,199.456 342.876,199.289 339.5,200.5C 340.661,202.378 339.994,203.378 337.5,203.5C 334.331,202.041 330.998,201.208 327.5,201C 327.5,200 327.5,199 327.5,198C 313.494,197.727 299.494,198.061 285.5,199C 279.99,200.89 274.324,201.723 268.5,201.5C 288.391,195.738 308.724,193.738 329.5,195.5C 338.356,196.902 347.356,198.235 356.5,199.5C 357.829,194.208 358.496,188.542 358.5,182.5C 358.333,176.833 358.167,171.167 358,165.5C 349.259,164.292 340.426,163.625 331.5,163.5 Z"/></g>
<g><path style="opacity:0.22" fill="#e9a470" d="M 329.5,195.5 C 338.873,195.231 347.873,196.564 356.5,199.5C 347.356,198.235 338.356,196.902 329.5,195.5 Z"/></g>
<g><path style="opacity:0.604" fill="#afcc95" d="M 19.5,191.5 C 13.7263,218.188 11.7263,245.188 13.5,272.5C 12.7784,272.082 12.2784,271.416 12,270.5C 11.5002,260.172 11.3335,249.839 11.5,239.5C 11.8118,226.378 12.9784,213.378 15,200.5C 16.3115,197.223 17.8115,194.223 19.5,191.5 Z"/></g>
<g><path style="opacity:0.991" fill="#95bf63" d="M 19.5,190.5 C 19.5,190.833 19.5,191.167 19.5,191.5C 17.8115,194.223 16.3115,197.223 15,200.5C 12.9784,213.378 11.8118,226.378 11.5,239.5C 10.5406,242.139 9.37398,244.806 8,247.5C 7.82298,235.655 7.65631,223.988 7.5,212.5C 8.71499,205.31 10.3817,198.31 12.5,191.5C 13.0652,189.614 14.0652,187.947 15.5,186.5C 16.4742,184.257 16.8076,181.924 16.5,179.5C 17.8221,179.67 18.9887,179.337 20,178.5C 20.3568,182.51 20.1901,186.51 19.5,190.5 Z"/></g>
<g><path style="opacity:0.063" fill="#d08550" d="M 268.5,201.5 C 264.902,203.74 260.902,205.074 256.5,205.5C 255.841,236.851 256.508,267.851 258.5,298.5C 257.791,299.404 256.791,299.737 255.5,299.5C 255.167,267.826 255.5,236.16 256.5,204.5C 260.523,203.482 264.523,202.482 268.5,201.5 Z"/></g>
<g><path style="opacity:0.18" fill="#e19356" d="M 363.5,245.5 C 354.686,242.808 345.686,240.975 336.5,240C 324.838,239.5 313.171,239.333 301.5,239.5C 306.803,238.417 312.303,237.75 318,237.5C 331.667,237.693 345.167,239.193 358.5,242C 360.431,242.902 362.097,244.069 363.5,245.5 Z"/></g>
<g><path style="opacity:0.996" fill="#c52b24" d="M 199.5,249.5 C 191.677,250.329 183.677,250.829 175.5,251C 165.18,252.047 154.847,253.547 144.5,255.5C 141.731,255.471 139.397,254.805 137.5,253.5C 137.833,253.5 138.167,253.5 138.5,253.5C 147.828,252.107 157.161,250.773 166.5,249.5C 177.38,249.575 188.38,249.575 199.5,249.5 Z"/></g>
<g><path style="opacity:1" fill="#d88241" d="M 299.5,249.5 C 328.577,247.132 356.577,251.132 383.5,261.5C 376.929,260.118 370.262,259.285 363.5,259C 361.156,258.163 359.156,256.829 357.5,255C 338.186,251.424 318.852,249.59 299.5,249.5 Z"/></g>
<g><path style="opacity:0.997" fill="#86be76" d="M 486.5,196.5 C 489.574,206.804 491.407,217.471 492,228.5C 492.814,242.575 492.648,256.575 491.5,270.5C 490.069,270.119 489.236,269.119 489,267.5C 489.185,274.112 489.018,280.778 488.5,287.5C 487.5,287.5 486.5,287.5 485.5,287.5C 485.823,280.978 485.49,274.645 484.5,268.5C 485.058,261.766 485.392,254.766 485.5,247.5C 485.21,235.805 484.543,224.138 483.5,212.5C 483.337,210.143 483.503,207.81 484,205.5C 484.333,207.5 484.667,209.5 485,211.5C 486.325,206.599 486.825,201.599 486.5,196.5 Z"/></g>
<g><path style="opacity:1" fill="#cb2218" d="M 223.5,295.5 C 211.632,294.302 199.965,293.302 188.5,292.5C 177.828,292.333 167.161,292.5 156.5,293C 154.934,293.608 153.6,294.442 152.5,295.5C 138.862,297.981 125.529,301.648 112.5,306.5C 114.401,304.204 116.734,302.371 119.5,301C 123.558,301.167 126.891,299.834 129.5,297C 129.167,296.667 128.833,296.333 128.5,296C 130.808,294.133 133.475,293.133 136.5,293C 133.722,291.608 130.722,291.108 127.5,291.5C 127.07,286.504 128.403,285.67 131.5,289C 135.373,289.27 139.206,289.77 143,290.5C 144.667,289.167 146.333,289.167 148,290.5C 149.333,289.833 150.667,289.167 152,288.5C 154.301,288.289 156.635,288.956 159,290.5C 159.945,290.095 160.612,289.428 161,288.5C 168.057,289.427 175.391,290.094 183,290.5C 193.185,290.236 203.351,289.903 213.5,289.5C 216.71,292.077 220.043,294.077 223.5,295.5 Z"/></g>
<g><path style="opacity:1" fill="#db7523" d="M 383.5,261.5 C 387.922,262.697 392.256,264.197 396.5,266C 398.649,267.152 400.482,268.652 402,270.5C 402.823,284.408 402.656,298.242 401.5,312C 387.485,306.774 373.152,302.107 358.5,298C 348.638,295.523 338.638,294.023 328.5,293.5C 328.389,292.883 328.056,292.383 327.5,292C 311.16,291.49 294.827,291.657 278.5,292.5C 281.358,291.834 284.358,291.167 287.5,290.5C 286.088,289.194 284.421,288.36 282.5,288C 284.636,285.888 286.636,286.055 288.5,288.5C 292.108,287.407 295.775,287.24 299.5,288C 300.126,288.75 300.626,289.584 301,290.5C 304.447,288.934 307.947,287.601 311.5,286.5C 313.611,286.486 315.445,287.152 317,288.5C 318.559,287.971 320.059,287.304 321.5,286.5C 324.657,288.714 328.824,290.047 334,290.5C 339.642,289.865 345.475,289.698 351.5,290C 354.716,293.412 358.216,293.912 362,291.5C 366.116,292.997 370.283,294.497 374.5,296C 373.328,296.419 372.328,297.085 371.5,298C 377.251,300.451 383.251,302.118 389.5,303C 391.337,304.952 393.671,305.952 396.5,306C 398,306.833 399.167,308 400,309.5C 400.5,296.504 400.667,283.504 400.5,270.5C 398.354,270.122 396.187,269.788 394,269.5C 391.233,270.72 388.399,271.22 385.5,271C 387.019,269.649 388.352,268.149 389.5,266.5C 388.667,266.167 387.833,265.833 387,265.5C 384.62,266.201 382.453,267.367 380.5,269C 373.211,269.217 365.877,268.884 358.5,268C 358.043,267.586 357.709,267.086 357.5,266.5C 360.363,265.126 363.363,264.126 366.5,263.5C 367.429,264.689 367.762,266.022 367.5,267.5C 368.5,267.5 369.5,267.5 370.5,267.5C 370.5,266.5 370.5,265.5 370.5,264.5C 373.463,264.151 375.796,265.151 377.5,267.5C 379.325,266.349 381.325,265.682 383.5,265.5C 383.5,264.167 383.5,262.833 383.5,261.5 Z"/></g>
<g><path style="opacity:0.659" fill="#d76558" d="M 188.5,292.5 C 176.627,293.257 164.627,294.257 152.5,295.5C 153.6,294.442 154.934,293.608 156.5,293C 167.161,292.5 177.828,292.333 188.5,292.5 Z"/></g>
<g><path style="opacity:0.996" fill="#d69057" d="M 328.5,293.5 C 309.423,291.93 290.423,292.596 271.5,295.5C 271.414,294.504 271.748,293.671 272.5,293C 274.473,292.505 276.473,292.338 278.5,292.5C 294.827,291.657 311.16,291.49 327.5,292C 328.056,292.383 328.389,292.883 328.5,293.5 Z"/></g>
<g><path style="opacity:1" fill="#77be7f" d="M 7.5,212.5 C 7.65631,223.988 7.82298,235.655 8,247.5C 9.37398,244.806 10.5406,242.139 11.5,239.5C 11.3335,249.839 11.5002,260.172 12,270.5C 12.2784,271.416 12.7784,272.082 13.5,272.5C 14.4299,276.4 14.7633,280.4 14.5,284.5C 14.891,292.405 15.891,300.238 17.5,308C 17.5463,309.728 17.0463,311.228 16,312.5C 14.3024,309.604 14.1357,306.604 15.5,303.5C 14.5,303.5 13.5,303.5 12.5,303.5C 12.5417,297.661 11.2084,292.328 8.5,287.5C 6.10116,275.094 5.10116,262.427 5.5,249.5C 5.42154,237.118 6.08821,224.784 7.5,212.5 Z"/></g>
<g><path style="opacity:0.223" fill="#71a5c1" d="M 256.5,322.5 C 294.33,321.501 332.33,321.168 370.5,321.5C 370.5,329.833 370.5,338.167 370.5,346.5C 358.833,346.5 347.167,346.5 335.5,346.5C 346.654,345.505 357.988,345.172 369.5,345.5C 369.5,337.833 369.5,330.167 369.5,322.5C 331.833,322.5 294.167,322.5 256.5,322.5 Z"/></g>
<g><path style="opacity:1" fill="#1d8b3f" d="M 195.5,389.5 C 195.82,386.102 195.487,382.768 194.5,379.5C 179.56,387.132 164.893,395.132 150.5,403.5C 146.727,402.042 142.727,401.542 138.5,402C 137.842,403.905 136.675,405.405 135,406.5C 134.749,379.822 134.249,353.155 133.5,326.5C 153.589,323.551 173.589,324.217 193.5,328.5C 194.416,328.457 195.083,328.124 195.5,327.5C 195.833,327.5 196.167,327.5 196.5,327.5C 197.427,325.424 199.093,324.257 201.5,324C 207.491,323.501 213.491,323.334 219.5,323.5C 219.667,356.502 219.5,389.502 219,422.5C 211.921,423.48 204.755,423.813 197.5,423.5C 198.144,411.784 197.478,400.451 195.5,389.5 Z M 158.5,347.5 C 168.849,347.836 178.849,349.836 188.5,353.5C 178.51,359.661 168.177,364.994 157.5,369.5C 157.203,362.08 157.536,354.746 158.5,347.5 Z"/></g>
<g><path style="opacity:1" fill="#6ac199" d="M 14.5,284.5 C 19.0459,307.812 26.0459,330.479 35.5,352.5C 37.3092,362.501 35.4759,363.168 30,354.5C 29.2291,351.81 28.3958,349.144 27.5,346.5C 26.5905,344.625 25.2572,343.292 23.5,342.5C 16.112,324.931 11.112,306.598 8.5,287.5C 11.2084,292.328 12.5417,297.661 12.5,303.5C 13.5,303.5 14.5,303.5 15.5,303.5C 14.1357,306.604 14.3024,309.604 16,312.5C 17.0463,311.228 17.5463,309.728 17.5,308C 15.891,300.238 14.891,292.405 14.5,284.5 Z"/></g>
<g><path style="opacity:0.996" fill="#64be96" d="M 491.5,270.5 C 489.498,299.176 482.498,326.509 470.5,352.5C 468.627,353.863 466.961,355.53 465.5,357.5C 464.571,358.689 464.238,360.022 464.5,361.5C 460.805,362.187 459.805,364.187 461.5,367.5C 459.833,367.5 458.167,367.5 456.5,367.5C 456.5,366.5 456.5,365.5 456.5,364.5C 468.042,342.037 476.542,318.37 482,293.5C 483.098,285.187 483.931,276.854 484.5,268.5C 485.49,274.645 485.823,280.978 485.5,287.5C 486.5,287.5 487.5,287.5 488.5,287.5C 489.018,280.778 489.185,274.112 489,267.5C 489.236,269.119 490.069,270.119 491.5,270.5 Z"/></g>
<g><path style="opacity:1" fill="#2878a9" d="M 376.5,321.5 C 384.833,321.5 393.167,321.5 401.5,321.5C 401.5,356.167 401.5,390.833 401.5,425.5C 393.167,425.5 384.833,425.5 376.5,425.5C 376.5,390.833 376.5,356.167 376.5,321.5 Z"/></g>
<g><path style="opacity:0.634" fill="#57976e" d="M 241.5,425.5 C 243.948,424.527 246.615,424.194 249.5,424.5C 249.832,391.329 249.498,358.329 248.5,325.5C 248.5,324.5 248.5,323.5 248.5,322.5C 241.5,322.5 234.5,322.5 227.5,322.5C 227.5,356.5 227.5,390.5 227.5,424.5C 231.042,424.187 234.375,424.521 237.5,425.5C 233.833,425.5 230.167,425.5 226.5,425.5C 226.5,390.5 226.5,355.5 226.5,320.5C 234.42,320.185 242.253,320.518 250,321.5C 250.5,356.165 250.667,390.832 250.5,425.5C 247.5,425.5 244.5,425.5 241.5,425.5 Z"/></g>
<g><path style="opacity:1" fill="#268547" d="M 248.5,325.5 C 249.498,358.329 249.832,391.329 249.5,424.5C 246.615,424.194 243.948,424.527 241.5,425.5C 240.167,425.5 238.833,425.5 237.5,425.5C 234.375,424.521 231.042,424.187 227.5,424.5C 227.5,390.5 227.5,356.5 227.5,322.5C 234.5,322.5 241.5,322.5 248.5,322.5C 248.5,323.5 248.5,324.5 248.5,325.5 Z"/></g>
<g><path style="opacity:1" fill="#1b8c3d" d="M 248.5,325.5 C 248.667,357.502 248.5,389.502 248,421.5C 245.276,422.776 242.276,423.442 239,423.5C 236.167,423.333 233.333,423.167 230.5,423C 229.751,421.266 229.251,419.433 229,417.5C 228.5,386.168 228.333,354.835 228.5,323.5C 235.334,323.065 242.001,323.732 248.5,325.5 Z"/></g>
<g><path style="opacity:0.999" fill="#2477a8" d="M 256.5,322.5 C 294.167,322.5 331.833,322.5 369.5,322.5C 369.5,330.167 369.5,337.833 369.5,345.5C 357.988,345.172 346.654,345.505 335.5,346.5C 333.824,347.183 333.157,348.517 333.5,350.5C 345.747,350.178 357.914,350.512 370,351.5C 370.5,376.164 370.667,400.831 370.5,425.5C 358.833,425.5 347.167,425.5 335.5,425.5C 335.5,417.5 335.5,409.5 335.5,401.5C 338.579,401.74 341.579,401.407 344.5,400.5C 345.665,392.187 345.832,383.853 345,375.5C 341.27,376.46 337.437,376.793 333.5,376.5C 333.072,389.497 332.738,402.497 332.5,415.5C 331.523,418.287 331.19,421.287 331.5,424.5C 306.167,424.5 280.833,424.5 255.5,424.5C 256.49,399.908 256.823,375.241 256.5,350.5C 273.5,350.5 290.5,350.5 307.5,350.5C 307.33,349.178 307.663,348.011 308.5,347C 291.17,346.5 273.837,346.333 256.5,346.5C 256.5,338.5 256.5,330.5 256.5,322.5 Z M 281.5,375.5 C 290.374,375.267 299.374,375.6 308.5,376.5C 308.703,384.777 308.37,392.943 307.5,401C 298.84,401.5 290.173,401.666 281.5,401.5C 281.5,392.833 281.5,384.167 281.5,375.5 Z"/></g>
<g><path style="opacity:0.707" fill="#2d8b4d" d="M 195.5,389.5 C 197.478,400.451 198.144,411.784 197.5,423.5C 204.755,423.813 211.921,423.48 219,422.5C 219.5,389.502 219.667,356.502 219.5,323.5C 213.491,323.334 207.491,323.501 201.5,324C 199.093,324.257 197.427,325.424 196.5,327.5C 196.5,325.5 196.5,323.5 196.5,321.5C 204.5,321.5 212.5,321.5 220.5,321.5C 220.5,356.167 220.5,390.833 220.5,425.5C 212.5,425.5 204.5,425.5 196.5,425.5C 196.725,413.474 196.392,401.474 195.5,389.5 Z"/></g>
<g><path style="opacity:1" fill="#3d8f56" d="M 195.5,327.5 C 195.083,328.124 194.416,328.457 193.5,328.5C 173.589,324.217 153.589,323.551 133.5,326.5C 134.249,353.155 134.749,379.822 135,406.5C 136.675,405.405 137.842,403.905 138.5,402C 142.727,401.542 146.727,402.042 150.5,403.5C 145.705,405.804 141.038,408.304 136.5,411C 135.207,411.49 133.873,411.657 132.5,411.5C 132.5,382.5 132.5,353.5 132.5,324.5C 153.759,320.475 174.759,321.475 195.5,327.5 Z"/></g>
<g><path style="opacity:0.984" fill="#49c0b5" d="M 23.5,342.5 C 25.2572,343.292 26.5905,344.625 27.5,346.5C 28.3958,349.144 29.2291,351.81 30,354.5C 35.4759,363.168 37.3092,362.501 35.5,352.5C 48.4481,378.53 65.4481,401.696 86.5,422C 94.6917,428.698 102.692,435.531 110.5,442.5C 107.983,443.247 105.983,442.247 104.5,439.5C 102.922,438.702 101.256,438.202 99.5,438C 97.4203,432.9 94.7536,432.4 91.5,436.5C 61.0104,410.865 38.3437,379.532 23.5,342.5 Z"/></g>
<g><path style="opacity:0.811" fill="#57a475" d="M 126.5,346.5 C 128.418,338.772 129.085,330.772 128.5,322.5C 118.5,322.5 108.5,322.5 98.5,322.5C 98.5,356.167 98.5,389.833 98.5,423.5C 108.167,423.5 117.833,423.5 127.5,423.5C 128.833,419.833 128.833,416.167 127.5,412.5C 126.448,412.649 125.448,412.483 124.5,412C 127.303,410.089 127.97,407.589 126.5,404.5C 124.253,403.626 121.92,403.292 119.5,403.5C 119.376,388.157 119.71,372.824 120.5,357.5C 120.511,353.435 121.178,349.768 122.5,346.5C 122.5,364.833 122.5,383.167 122.5,401.5C 124.833,401.5 127.167,401.5 129.5,401.5C 129.5,409.5 129.5,417.5 129.5,425.5C 118.585,425.82 107.752,425.487 97,424.5C 96.5,390.168 96.3333,355.835 96.5,321.5C 107.484,320.281 118.484,320.281 129.5,321.5C 129.5,329.833 129.5,338.167 129.5,346.5C 128.5,346.5 127.5,346.5 126.5,346.5 Z"/></g>
<g><path style="opacity:1" fill="#1b8b3e" d="M 126.5,346.5 C 125.167,346.5 123.833,346.5 122.5,346.5C 121.178,349.768 120.511,353.435 120.5,357.5C 119.71,372.824 119.376,388.157 119.5,403.5C 121.92,403.292 124.253,403.626 126.5,404.5C 127.97,407.589 127.303,410.089 124.5,412C 125.448,412.483 126.448,412.649 127.5,412.5C 128.833,416.167 128.833,419.833 127.5,423.5C 117.833,423.5 108.167,423.5 98.5,423.5C 98.5,389.833 98.5,356.167 98.5,322.5C 108.5,322.5 118.5,322.5 128.5,322.5C 129.085,330.772 128.418,338.772 126.5,346.5 Z"/></g>
<g><path style="opacity:0.275" fill="#659bb8" d="M 332.5,415.5 C 332.673,418.735 332.673,421.901 332.5,425C 306.663,425.83 280.997,425.663 255.5,424.5C 280.833,424.5 306.167,424.5 331.5,424.5C 331.19,421.287 331.523,418.287 332.5,415.5 Z"/></g>
<g><path style="opacity:0.976" fill="#46bfb8" d="M 470.5,352.5 C 451.636,393.214 423.636,426.214 386.5,451.5C 386.5,450.167 386.5,448.833 386.5,447.5C 388.167,447.5 389.833,447.5 391.5,447.5C 391.5,446.167 391.5,444.833 391.5,443.5C 389.901,443.768 388.568,443.434 387.5,442.5C 415.481,420.856 438.481,394.856 456.5,364.5C 456.5,365.5 456.5,366.5 456.5,367.5C 458.167,367.5 459.833,367.5 461.5,367.5C 459.805,364.187 460.805,362.187 464.5,361.5C 464.238,360.022 464.571,358.689 465.5,357.5C 466.961,355.53 468.627,353.863 470.5,352.5 Z"/></g>
<g><path style="opacity:0.941" fill="#32bece" d="M 110.5,442.5 C 172.858,485.24 240.858,497.073 314.5,478C 340.712,469.883 365.045,458.049 387.5,442.5C 388.568,443.434 389.901,443.768 391.5,443.5C 391.5,444.833 391.5,446.167 391.5,447.5C 389.833,447.5 388.167,447.5 386.5,447.5C 386.5,448.833 386.5,450.167 386.5,451.5C 337.67,484.376 283.67,498.209 224.5,493C 174.049,487.818 129.715,468.984 91.5,436.5C 94.7536,432.4 97.4203,432.9 99.5,438C 101.256,438.202 102.922,438.702 104.5,439.5C 105.983,442.247 107.983,443.247 110.5,442.5 Z"/></g>
</svg>
